<svg width="2278" height="2056" xmlns="http://www.w3.org/2000/svg" xmlns:xlink="http://www.w3.org/1999/xlink" xml:space="preserve" overflow="hidden"><defs><filter id="fx0" x="-10%" y="-10%" width="120%" height="120%" filterUnits="userSpaceOnUse" primitiveUnits="userSpaceOnUse"><feComponentTransfer color-interpolation-filters="sRGB"><feFuncR type="discrete" tableValues="0 0"/><feFuncG type="discrete" tableValues="0 0"/><feFuncB type="discrete" tableValues="0 0"/><feFuncA type="linear" slope="0.172549" intercept="0"/></feComponentTransfer><feGaussianBlur stdDeviation="6.11111 6.11111"/></filter></defs><g transform="translate(-1206 -235)"><g filter="url(#fx0)" transform="translate(1240 254)"><g><path d="M19.7225 124.178C19.7225 66.489 66.4888 19.7227 124.178 19.7227L2120.27 19.7227C2177.96 19.7227 2224.72 66.489 2224.72 124.178L2224.72 1913.27C2224.72 1970.96 2177.96 2017.72 2120.27 2017.72L124.178 2017.72C66.4888 2017.72 19.7225 1970.96 19.7225 1913.27Z" fill="#FBFEFF" fill-rule="evenodd"/></g></g><path d="M1250 368.455C1250 310.766 1296.77 264 1354.46 264L3350.54 264C3408.23 264 3455 310.766 3455 368.455L3455 2157.54C3455 2215.23 3408.23 2262 3350.54 2262L1354.46 2262C1296.77 2262 1250 2215.23 1250 2157.54Z" fill="#FBFEFF" fill-rule="evenodd"/><path d="M1366 1380.12 1407.25 1380.12 1407.25 1393.88 1366 1393.88ZM1421 1380.12 1462.25 1380.12 1462.25 1393.88 1421 1393.88ZM1476 1380.12 1517.25 1380.12 1517.25 1393.88 1476 1393.88ZM1531 1380.12 1572.25 1380.12 1572.25 1393.88 1531 1393.88ZM1586 1380.12 1627.25 1380.12 1627.25 1393.88 1586 1393.88ZM1641 1380.12 1682.25 1380.12 1682.25 1393.88 1641 1393.88ZM1696 1380.12 1737.25 1380.13 1737.25 1393.88 1696 1393.88ZM1751 1380.13 1792.25 1380.13 1792.25 1393.88 1751 1393.88ZM1806 1380.13 1847.25 1380.13 1847.25 1393.88 1806 1393.88ZM1861 1380.13 1902.25 1380.13 1902.25 1393.88 1861 1393.88ZM1916 1380.13 1957.25 1380.13 1957.25 1393.88 1916 1393.88ZM1971 1380.13 2012.25 1380.13 2012.25 1393.88 1971 1393.88ZM2026 1380.13 2067.25 1380.13 2067.25 1393.88 2026 1393.88ZM2081 1380.13 2122.25 1380.13 2122.25 1393.88 2081 1393.88ZM2136 1380.13 2177.25 1380.13 2177.25 1393.88 2136 1393.88ZM2191 1380.13 2232.25 1380.13 2232.25 1393.88 2191 1393.88ZM2246 1380.13 2287.25 1380.13 2287.25 1393.88 2246 1393.88ZM2301 1380.13 2342.25 1380.13 2342.25 1393.88 2301 1393.88ZM2356 1380.13 2397.25 1380.13 2397.25 1393.88 2356 1393.88ZM2411 1380.13 2452.25 1380.13 2452.25 1393.88 2411 1393.88ZM2466 1380.13 2507.25 1380.13 2507.25 1393.88 2466 1393.88ZM2521 1380.13 2562.25 1380.13 2562.25 1393.88 2521 1393.88ZM2576 1380.13 2617.25 1380.13 2617.25 1393.88 2576 1393.88ZM2631 1380.13 2672.25 1380.13 2672.25 1393.88 2631 1393.88ZM2686 1380.13 2727.25 1380.13 2727.25 1393.88 2686 1393.88ZM2741 1380.13 2782.25 1380.13 2782.25 1393.88 2741 1393.88ZM2796 1380.13 2837.25 1380.13 2837.25 1393.88 2796 1393.88ZM2851 1380.13 2892.25 1380.13 2892.25 1393.88 2851 1393.88ZM2906 1380.13 2947.25 1380.13 2947.25 1393.88 2906 1393.88ZM2961 1380.13 3002.25 1380.13 3002.25 1393.88 2961 1393.88ZM3016 1380.13 3057.25 1380.13 3057.25 1393.88 3016 1393.88ZM3071 1380.13 3112.25 1380.13 3112.25 1393.88 3071 1393.88ZM3126 1380.13 3167.25 1380.13 3167.25 1393.88 3126 1393.88ZM3181 1380.13 3222.25 1380.13 3222.25 1393.88 3181 1393.88ZM3236 1380.13 3277.25 1380.13 3277.25 1393.88 3236 1393.88ZM3291 1380.13 3332.25 1380.13 3332.25 1393.88 3291 1393.88ZM3327.75 1366.38 3369 1387 3327.75 1407.63Z"/><path d="M3.74671-2.63991 55.8697 71.3358 48.3763 76.6157-3.74671 2.63991ZM60.7232 62.3093 65.3226 92.7093 38.243 78.1488Z" fill="#FFC000" transform="matrix(-1 0 0 1 1706.82 565.5)"/><path d="M1.26562-4.40513 522.533 145.359 520.002 154.169-1.26562 4.40513ZM520.66 135.283 543.294 156.092 513.066 161.714Z" fill="#FFC000" transform="matrix(-1 0 0 1 2308.79 371.5)"/><path d="M3.85133-2.48479 59.7627 84.1758 52.06 89.1453-3.85133 2.48479ZM64.9806 75.3549 68.3353 105.917 41.8726 90.2636Z" fill="#FFC000" transform="matrix(-1 0 0 1 1578.84 720.5)"/><path d="M2264 326.5C2264 301.923 2283.7 282 2308 282 2332.3 282 2352 301.923 2352 326.5 2352 351.077 2332.3 371 2308 371 2283.7 371 2264 351.077 2264 326.5Z" fill="#2F5597" fill-rule="evenodd"/><text fill="#FFFFFF" font-family="Arial,Arial_MSFontService,sans-serif" font-weight="700" font-size="83" transform="matrix(1 0 0 1 2278.38 357)">A</text><rect x="1643.5" y="442.5" width="37.0001" height="143" stroke="#172C51" stroke-width="4.58333" stroke-miterlimit="8" fill="none"/><rect x="1643.5" y="443.5" width="37.0001" height="142" stroke="#172C51" stroke-width="4.58333" stroke-miterlimit="8" fill="#D9D9D9"/><rect x="1515.5" y="612.5" width="36.9998" height="142" stroke="#172C51" stroke-width="4.58333" stroke-miterlimit="8" fill="none"/><rect x="1515.5" y="626.5" width="36.9998" height="128" stroke="#172C51" stroke-width="4.58333" stroke-miterlimit="8" fill="#D9D9D9"/><rect x="1416.5" y="781.5" width="36.9998" height="143" stroke="#172C51" stroke-width="4.58333" stroke-miterlimit="8" fill="none"/><rect x="1416.5" y="782.5" width="36.9998" height="142" stroke="#172C51" stroke-width="4.58333" stroke-miterlimit="8" fill="#D9D9D9"/><path d="M2727 533.5C2727 508.923 2746.92 489 2771.5 489 2796.08 489 2816 508.923 2816 533.5 2816 558.077 2796.08 578 2771.5 578 2746.92 578 2727 558.077 2727 533.5Z" fill="#2F5597" fill-rule="evenodd"/><text fill="#FFFFFF" font-family="Arial,Arial_MSFontService,sans-serif" font-weight="700" font-size="83" transform="matrix(1 0 0 1 2741.49 564)">C</text><path d="M2785 1040C2785 1015.7 2804.7 996 2829 996 2853.3 996 2873 1015.7 2873 1040 2873 1064.3 2853.3 1084 2829 1084 2804.7 1084 2785 1064.3 2785 1040Z" fill="#2F5597" fill-rule="evenodd"/><text fill="#FFFFFF" font-family="Arial,Arial_MSFontService,sans-serif" font-weight="700" font-size="83" transform="matrix(1 0 0 1 2799.12 1070)">B</text><path d="M2775.32 575.966 2806.95 623.627 2799.31 628.696 2767.68 581.035ZM2812.06 614.739 2815.81 645.255 2789.14 629.946Z" fill="#FFC000"/><path d="M2829.28 738.91 2913.75 862.21 2906.19 867.39 2821.72 744.09ZM2918.72 853.248 2922.92 883.706 2896.03 868.79Z" fill="#FFC000"/><path d="M2901 1186.5C2901 1161.92 2920.92 1142 2945.5 1142 2970.08 1142 2990 1161.92 2990 1186.5 2990 1211.08 2970.08 1231 2945.5 1231 2920.92 1231 2901 1211.08 2901 1186.5Z" fill="#2F5597" fill-rule="evenodd"/><text fill="#FFFFFF" font-family="Arial,Arial_MSFontService,sans-serif" font-weight="700" font-size="83" transform="matrix(1 0 0 1 2917.76 1217)">E</text><path d="M2863.44 1067.98 2930.87 1124.3 2925 1131.33 2857.56 1075.02ZM2933.23 1114.32 2945.53 1142.5 2915.6 1135.43Z" fill="#FFC000"/><path d="M2771 688.5C2771 663.923 2790.92 644 2815.5 644 2840.08 644 2860 663.923 2860 688.5 2860 713.077 2840.08 733 2815.5 733 2790.92 733 2771 713.077 2771 688.5Z" fill="#2F5597" fill-rule="evenodd"/><text fill="#FFFFFF" font-family="Arial,Arial_MSFontService,sans-serif" font-weight="700" font-size="83" transform="matrix(1 0 0 1 2785.79 719)">D</text><path d="M2874 870.5C2874 845.923 2893.7 826 2918 826 2942.3 826 2962 845.923 2962 870.5 2962 895.077 2942.3 915 2918 915 2893.7 915 2874 895.077 2874 870.5Z" fill="#2F5597" fill-rule="evenodd"/><text fill="#FFFFFF" font-family="Arial,Arial_MSFontService,sans-serif" font-weight="700" font-size="83" transform="matrix(1 0 0 1 2892.73 901)">F</text><path d="M3.52306-2.93172 77.8894 86.4348 70.8433 92.2983-3.52306 2.93172ZM82.0038 77.0483 89.0249 106.982 60.8654 94.6386Z" fill="#FFC000" transform="matrix(-1 0 0 1 2887.52 902.5)"/><rect x="2832.5" y="442.5" width="37.0002" height="143" stroke="#172C51" stroke-width="4.58333" stroke-miterlimit="8" fill="none"/><rect x="2832.5" y="561.5" width="37.0002" height="24.0001" stroke="#172C51" stroke-width="4.58333" stroke-miterlimit="8" fill="#D9D9D9"/><rect x="2867.5" y="612.5" width="36.9998" height="142" stroke="#172C51" stroke-width="4.58333" stroke-miterlimit="8" fill="none"/><rect x="2867.5" y="731.5" width="36.9998" height="23.0001" stroke="#172C51" stroke-width="4.58333" stroke-miterlimit="8" fill="#D9D9D9"/><rect x="2974.5" y="781.5" width="37.0002" height="143" stroke="#172C51" stroke-width="4.58333" stroke-miterlimit="8" fill="none"/><rect x="2974.5" y="900.5" width="37.0002" height="23.9997" stroke="#172C51" stroke-width="4.58333" stroke-miterlimit="8" fill="#D9D9D9"/><rect x="2894.5" y="928.5" width="37.0002" height="142" stroke="#172C51" stroke-width="4.58333" stroke-miterlimit="8" fill="none"/><rect x="2894.5" y="1047.5" width="37.0002" height="23" stroke="#172C51" stroke-width="4.58333" stroke-miterlimit="8" fill="#D9D9D9"/><rect x="3002.5" y="1093.5" width="36.9998" height="142" stroke="#172C51" stroke-width="4.58333" stroke-miterlimit="8" fill="none"/><rect x="3002.5" y="1202.5" width="36.9998" height="33" stroke="#172C51" stroke-width="4.58333" stroke-miterlimit="8" fill="#D9D9D9"/><rect x="2693.5" y="1215.5" width="36.9998" height="143" stroke="#172C51" stroke-width="4.58333" stroke-miterlimit="8" fill="none"/><rect x="2693.5" y="1335.5" width="36.9998" height="23" stroke="#172C51" stroke-width="4.58333" stroke-miterlimit="8" fill="#D9D9D9"/><path d="M2309.83 367.115 2719.69 491.581 2717.02 500.352 2307.17 375.886ZM2717.96 481.478 2740.28 502.625 2709.97 507.791Z" fill="#FFC000"/><path d="M2383 533.5C2383 508.923 2402.7 489 2427 489 2451.3 489 2471 508.923 2471 533.5 2471 558.077 2451.3 578 2427 578 2402.7 578 2383 558.077 2383 533.5Z" fill="#2F5597" fill-rule="evenodd"/><text fill="#FFFFFF" font-family="Arial,Arial_MSFontService,sans-serif" font-weight="700" font-size="83" transform="matrix(1 0 0 1 2397.06 564)">C</text><path d="M2324 1019.5C2324 994.923 2343.92 975 2368.5 975 2393.08 975 2413 994.923 2413 1019.5 2413 1044.08 2393.08 1064 2368.5 1064 2343.92 1064 2324 1044.08 2324 1019.5Z" fill="#2F5597" fill-rule="evenodd"/><text fill="#FFFFFF" font-family="Arial,Arial_MSFontService,sans-serif" font-weight="700" font-size="83" transform="matrix(1 0 0 1 2338.45 1050)">B</text><path d="M2311.73 368.252 2414.18 470.233 2407.71 476.729 2305.27 374.748ZM2417.4 460.503 2427.18 489.649 2397.99 479.992Z" fill="#FFC000"/><path d="M3.7967-2.5675 36.1022 45.2044 28.5088 50.3394-3.7967 2.5675ZM41.1281 36.2727 45.1429 66.7553 18.3479 51.6777Z" fill="#FFC000" transform="matrix(-1 0 0 1 2427.64 578.5)"/><path d="M2386.65 705.558 2438.63 816.714 2430.33 820.597 2378.35 709.441ZM2444.99 808.679 2444.19 839.414 2420.08 820.328Z" fill="#FFC000"/><path d="M2414 1186.5C2414 1161.92 2433.92 1142 2458.5 1142 2483.08 1142 2503 1161.92 2503 1186.5 2503 1211.08 2483.08 1231 2458.5 1231 2433.92 1231 2414 1211.08 2414 1186.5Z" fill="#2F5597" fill-rule="evenodd"/><text fill="#FFFFFF" font-family="Arial,Arial_MSFontService,sans-serif" font-weight="700" font-size="83" transform="matrix(1 0 0 1 2430.82 1217)">E</text><path d="M2404.35 1049.02 2450.69 1120.92 2442.98 1125.89 2396.65 1053.98ZM2455.91 1112.11 2459.25 1142.67 2432.8 1127Z" fill="#FFC000"/><path d="M2337 688.5C2337 663.923 2356.92 644 2381.5 644 2406.08 644 2426 663.923 2426 688.5 2426 713.077 2406.08 733 2381.5 733 2356.92 733 2337 713.077 2337 688.5Z" fill="#2F5597" fill-rule="evenodd"/><text fill="#FFFFFF" font-family="Arial,Arial_MSFontService,sans-serif" font-weight="700" font-size="83" transform="matrix(1 0 0 1 2351.92 719)">D</text><path d="M2430 870.5C2430 845.923 2449.92 826 2474.5 826 2499.08 826 2519 845.923 2519 870.5 2519 895.077 2499.08 915 2474.5 915 2449.92 915 2430 895.077 2430 870.5Z" fill="#2F5597" fill-rule="evenodd"/><text fill="#FFFFFF" font-family="Arial,Arial_MSFontService,sans-serif" font-weight="700" font-size="83" transform="matrix(1 0 0 1 2449.52 901)">F</text><path d="M2.89629-3.55225 91.6124 68.7815 85.8198 75.886-2.89629 3.55225ZM93.8527 58.7807 106.477 86.8152 76.475 80.0942Z" fill="#FFC000" transform="matrix(-1 0 0 1 2443.98 902.5)"/><rect x="2438.5" y="612.5" width="36.9998" height="142" stroke="#172C51" stroke-width="4.58333" stroke-miterlimit="8" fill="none"/><rect x="2438.5" y="691.5" width="36.9998" height="62.9999" stroke="#172C51" stroke-width="4.58333" stroke-miterlimit="8" fill="#D9D9D9"/><rect x="2527.5" y="781.5" width="36.9998" height="143" stroke="#172C51" stroke-width="4.58333" stroke-miterlimit="8" fill="none"/><rect x="2527.5" y="835.5" width="36.9998" height="88.9997" stroke="#172C51" stroke-width="4.58333" stroke-miterlimit="8" fill="#D9D9D9"/><rect x="2278.5" y="928.5" width="37.0002" height="142" stroke="#172C51" stroke-width="4.58333" stroke-miterlimit="8" fill="none"/><rect x="2278.5" y="1028.5" width="37.0002" height="41.9999" stroke="#172C51" stroke-width="4.58333" stroke-miterlimit="8" fill="#D9D9D9"/><rect x="2515.5" y="1093.5" width="36.9998" height="142" stroke="#172C51" stroke-width="4.58333" stroke-miterlimit="8" fill="none"/><rect x="2515.5" y="1217.5" width="36.9998" height="17.9999" stroke="#172C51" stroke-width="4.58333" stroke-miterlimit="8" fill="#D9D9D9"/><rect x="2483.5" y="442.5" width="36.9998" height="143" stroke="#172C51" stroke-width="4.58333" stroke-miterlimit="8" fill="#FFFFFF"/><rect x="2483.5" y="501.5" width="36.9998" height="83.9998" stroke="#172C51" stroke-width="4.58333" stroke-miterlimit="8" fill="#D9D9D9"/><text font-family="Arial Nova Light,Arial Nova Light_MSFontService,sans-serif" font-style="italic" font-weight="300" font-size="83" transform="matrix(1 0 0 1 1364.65 1330)">High</text><path d="M1578.74 1321.66C1577.36 1321.66 1576 1322.12 1574.67 1323.06 1573.33 1323.99 1571.86 1325.48 1570.27 1327.53 1568.68 1329.59 1567.43 1331.61 1566.54 1333.61 1565.65 1335.61 1564.95 1337.91 1564.43 1340.5L1564.11 1342.2C1563.84 1343.64 1563.67 1344.73 1563.6 1345.49 1563.54 1346.24 1563.5 1346.99 1563.5 1347.72 1563.5 1349.82 1563.95 1351.36 1564.86 1352.32 1565.76 1353.28 1567.32 1353.75 1569.54 1353.75 1570.92 1353.75 1572.19 1353.48 1573.35 1352.94 1574.51 1352.4 1575.61 1351.62 1576.65 1350.59 1577.69 1349.57 1578.63 1348.32 1579.47 1346.86 1580.31 1345.41 1581.06 1343.71 1581.72 1341.78 1582.38 1339.85 1582.88 1337.86 1583.22 1335.82 1583.56 1333.78 1583.72 1331.87 1583.72 1330.09 1583.72 1327.25 1583.33 1325.14 1582.53 1323.74 1581.73 1322.35 1580.47 1321.66 1578.74 1321.66ZM1561.68 1316.87C1563.35 1316.87 1564.68 1317.43 1565.67 1318.54 1566.66 1319.64 1567.15 1321.12 1567.15 1322.95 1567.15 1324.47 1566.84 1326.06 1566.22 1327.74L1566.7 1327.9C1571.7 1320.58 1576.67 1316.92 1581.62 1316.92 1584.56 1316.92 1586.85 1318.04 1588.49 1320.28 1590.12 1322.52 1590.94 1325.68 1590.94 1329.76 1590.94 1334.22 1590.04 1338.6 1588.24 1342.91 1586.45 1347.22 1583.95 1350.64 1580.77 1353.17 1577.58 1355.69 1574.01 1356.96 1570.07 1356.96 1566.47 1356.96 1563.49 1356.17 1561.11 1354.61L1559.25 1363.48C1558.84 1365.4 1558.64 1366.98 1558.64 1368.22 1558.64 1369.41 1558.94 1370.26 1559.55 1370.76 1560.16 1371.26 1561.34 1371.59 1563.1 1371.75L1562.77 1373.73 1550.25 1373.73 1560.02 1330.74C1560.58 1328.25 1560.87 1326.21 1560.87 1324.62 1560.87 1323.53 1560.69 1322.75 1560.34 1322.26 1559.99 1321.78 1559.44 1321.54 1558.68 1321.54 1557.84 1321.54 1556.96 1321.88 1556.02 1322.57 1555.09 1323.26 1553.82 1324.51 1552.19 1326.32L1549.88 1324.05C1552.32 1321.51 1554.38 1319.68 1556.07 1318.56 1557.75 1317.44 1559.62 1316.87 1561.68 1316.87ZM1677.83 1308.89 1663.41 1334.42 1679.25 1334.42 1678.56 1321.37C1678.48 1319.59 1678.41 1317.36 1678.36 1314.69 1678.31 1312.01 1678.28 1310.08 1678.28 1308.89ZM1725.09 1304.55C1723.66 1304.55 1722.15 1304.61 1720.55 1304.72L1715.37 1328.18 1720.15 1328.18C1724.06 1328.18 1727.16 1327.66 1729.43 1326.6 1731.7 1325.55 1733.49 1323.82 1734.82 1321.41 1736.14 1319.01 1736.8 1316.42 1736.8 1313.63 1736.8 1312.47 1736.7 1311.44 1736.48 1310.53 1736.26 1309.63 1735.98 1308.88 1735.63 1308.28 1735.28 1307.69 1734.83 1307.16 1734.29 1306.7 1733.75 1306.24 1733.08 1305.84 1732.27 1305.51 1731.45 1305.17 1730.52 1304.93 1729.45 1304.78 1728.38 1304.63 1726.93 1304.55 1725.09 1304.55ZM1708.84 1300.99 1726.87 1300.99C1729.74 1300.99 1732.08 1301.16 1733.89 1301.49 1735.7 1301.83 1737.24 1302.34 1738.53 1303.01 1739.81 1303.69 1740.88 1304.56 1741.75 1305.63 1742.61 1306.7 1743.26 1307.9 1743.69 1309.24 1744.13 1310.57 1744.34 1312 1744.34 1313.51 1744.34 1317.67 1743.07 1321.21 1740.53 1324.13 1737.99 1327.05 1734.25 1329.26 1729.31 1330.78L1729.31 1331.22C1730.6 1332.19 1731.65 1333.36 1732.45 1334.71 1733.24 1336.06 1733.89 1337.94 1734.37 1340.34L1735.3 1345.04C1735.6 1346.53 1735.94 1347.86 1736.32 1349.05 1736.7 1350.24 1737.15 1351.19 1737.68 1351.89 1738.2 1352.59 1738.8 1353.12 1739.46 1353.47 1740.12 1353.82 1741.09 1354.11 1742.36 1354.32L1741.95 1356.31 1730.72 1356.31C1729.86 1353.9 1729.09 1351.04 1728.41 1347.72L1726.63 1339.12C1726.33 1337.64 1725.98 1336.39 1725.56 1335.38 1725.14 1334.36 1724.64 1333.58 1724.06 1333.02 1723.48 1332.47 1722.8 1332.11 1722.03 1331.93 1721.26 1331.76 1720.32 1331.67 1719.22 1331.67L1714.6 1331.67 1711.76 1344.51C1711.52 1345.57 1711.35 1346.41 1711.25 1347.03 1711.16 1347.65 1711.08 1348.3 1711.01 1348.99 1710.94 1349.68 1710.91 1350.3 1710.91 1350.84 1710.91 1351.67 1711.04 1352.33 1711.31 1352.8 1711.58 1353.28 1711.99 1353.62 1712.53 1353.84 1713.07 1354.05 1714 1354.21 1715.32 1354.32L1714.88 1356.31 1698.22 1356.31 1698.67 1354.32C1699.69 1354.16 1700.46 1353.9 1700.98 1353.53 1701.49 1353.17 1701.92 1352.66 1702.27 1352.01 1702.63 1351.36 1702.95 1350.57 1703.25 1349.64 1703.54 1348.71 1703.99 1346.91 1704.58 1344.23L1711.47 1313.02C1712.07 1310.32 1712.37 1308.19 1712.37 1306.62 1712.37 1305.3 1712.06 1304.38 1711.43 1303.87 1710.81 1303.35 1709.8 1303.05 1708.39 1302.97ZM1600.79 1300.99 1643.1 1300.99 1639.94 1315.25 1636.05 1315.25C1636.05 1312.63 1635.98 1310.67 1635.84 1309.36 1635.71 1308.05 1635.45 1307.05 1635.07 1306.36 1634.7 1305.67 1634.23 1305.2 1633.68 1304.94 1633.12 1304.68 1632.14 1304.55 1630.74 1304.55L1624.74 1304.55 1615.95 1344.51C1615.7 1345.57 1615.53 1346.41 1615.44 1347.03 1615.34 1347.65 1615.26 1348.3 1615.2 1348.99 1615.13 1349.68 1615.09 1350.3 1615.09 1350.84 1615.09 1351.67 1615.23 1352.33 1615.5 1352.8 1615.77 1353.28 1616.18 1353.62 1616.72 1353.84 1617.26 1354.05 1618.19 1354.21 1619.51 1354.32L1619.07 1356.31 1602 1356.31 1602.45 1354.32C1603.53 1354.16 1604.33 1353.94 1604.84 1353.67 1605.35 1353.4 1605.81 1352.98 1606.2 1352.42 1606.59 1351.85 1606.98 1350.96 1607.37 1349.74 1607.77 1348.53 1608.23 1346.69 1608.77 1344.23L1617.45 1304.55 1612.3 1304.55C1610.62 1304.55 1609.29 1304.8 1608.29 1305.28 1607.29 1305.77 1606.29 1306.68 1605.29 1308 1604.29 1309.32 1603.07 1311.54 1601.64 1314.65L1597.75 1314.65ZM1678.08 1300.34 1684.2 1300.34 1687.11 1345.53C1687.25 1347.66 1687.49 1349.33 1687.84 1350.53 1688.19 1351.73 1688.67 1352.63 1689.28 1353.21 1689.89 1353.79 1690.78 1354.16 1691.94 1354.32L1691.49 1356.31 1674.63 1356.31 1675.08 1354.32C1676.67 1354.19 1677.86 1353.57 1678.64 1352.46 1679.43 1351.35 1679.82 1349.4 1679.82 1346.62 1679.82 1345.57 1679.78 1344.42 1679.7 1343.18L1679.41 1337.95 1661.58 1337.95 1659.35 1341.92C1658.3 1343.78 1657.53 1345.39 1657.04 1346.72 1656.56 1348.06 1656.31 1349.24 1656.31 1350.27 1656.31 1352.54 1657.68 1353.89 1660.41 1354.32L1659.96 1356.31 1643.39 1356.31 1643.83 1354.32C1644.67 1354.21 1645.46 1353.88 1646.2 1353.33 1646.94 1352.78 1647.74 1351.94 1648.57 1350.82 1649.41 1349.7 1650.59 1347.84 1652.1 1345.24Z" fill-rule="evenodd"/><text fill="#000000" fill-opacity="0" font-family="Arial,Arial_MSFontService,sans-serif" font-size="73.395" x="1549.88" y="1364.56">ğ‘ğ‘‡ğ´ğ‘…</text><text font-family="Arial Nova Light,Arial Nova Light_MSFontService,sans-serif" font-style="italic" font-weight="300" font-size="83" transform="matrix(1 0 0 1 3015.82 1328)">Low</text><path d="M3209.79 1320.16C3208.41 1320.16 3207.05 1320.62 3205.71 1321.56 3204.38 1322.49 3202.91 1323.98 3201.32 1326.03 3199.72 1328.09 3198.48 1330.11 3197.59 1332.11 3196.7 1334.11 3195.99 1336.41 3195.48 1339L3195.16 1340.71C3194.89 1342.14 3194.72 1343.23 3194.65 1343.99 3194.58 1344.74 3194.55 1345.49 3194.55 1346.22 3194.55 1348.32 3195 1349.86 3195.91 1350.82 3196.81 1351.78 3198.37 1352.26 3200.59 1352.26 3201.97 1352.26 3203.24 1351.99 3204.4 1351.44 3205.56 1350.9 3206.66 1350.12 3207.7 1349.09 3208.74 1348.07 3209.68 1346.82 3210.52 1345.37 3211.35 1343.91 3212.1 1342.21 3212.77 1340.28 3213.43 1338.35 3213.93 1336.36 3214.27 1334.32 3214.6 1332.28 3214.77 1330.37 3214.77 1328.59 3214.77 1325.75 3214.37 1323.64 3213.58 1322.24 3212.78 1320.85 3211.52 1320.16 3209.79 1320.16ZM3192.73 1315.38C3194.4 1315.38 3195.73 1315.93 3196.72 1317.04 3197.7 1318.15 3198.2 1319.62 3198.2 1321.45 3198.2 1322.97 3197.89 1324.56 3197.26 1326.24L3197.75 1326.4C3202.75 1319.08 3207.72 1315.42 3212.66 1315.42 3215.61 1315.42 3217.9 1316.54 3219.53 1318.78 3221.17 1321.02 3221.99 1324.18 3221.99 1328.26 3221.99 1332.72 3221.09 1337.1 3219.29 1341.41 3217.49 1345.72 3215 1349.14 3211.81 1351.67 3208.63 1354.19 3205.06 1355.46 3201.11 1355.46 3197.52 1355.46 3194.54 1354.67 3192.16 1353.11L3190.29 1361.98C3189.89 1363.9 3189.69 1365.48 3189.69 1366.72 3189.69 1367.91 3189.99 1368.76 3190.6 1369.26 3191.21 1369.76 3192.39 1370.09 3194.14 1370.25L3193.82 1372.24 3181.3 1372.24 3191.06 1329.24C3191.63 1326.75 3191.91 1324.71 3191.91 1323.12 3191.91 1322.04 3191.74 1321.25 3191.39 1320.77 3191.04 1320.28 3190.48 1320.04 3189.73 1320.04 3188.89 1320.04 3188 1320.38 3187.07 1321.07 3186.14 1321.76 3184.86 1323.01 3183.24 1324.82L3180.93 1322.55C3183.36 1320.01 3185.42 1318.18 3187.11 1317.06 3188.8 1315.94 3190.67 1315.38 3192.73 1315.38ZM3308.88 1307.39 3294.45 1332.92 3310.3 1332.92 3309.61 1319.87C3309.53 1318.09 3309.46 1315.86 3309.41 1313.19 3309.35 1310.51 3309.33 1308.58 3309.33 1307.39ZM3356.14 1303.06C3354.71 1303.06 3353.19 1303.11 3351.6 1303.22L3346.41 1326.68 3351.19 1326.68C3355.11 1326.68 3358.21 1326.16 3360.48 1325.1 3362.74 1324.05 3364.54 1322.32 3365.87 1319.91 3367.19 1317.51 3367.85 1314.92 3367.85 1312.13 3367.85 1310.97 3367.74 1309.94 3367.53 1309.03 3367.31 1308.13 3367.03 1307.38 3366.68 1306.78 3366.32 1306.19 3365.88 1305.66 3365.34 1305.2 3364.8 1304.74 3364.12 1304.35 3363.31 1304.01 3362.5 1303.67 3361.56 1303.43 3360.5 1303.28 3359.43 1303.13 3357.98 1303.06 3356.14 1303.06ZM3339.89 1299.49 3357.92 1299.49C3360.79 1299.49 3363.12 1299.66 3364.93 1300 3366.74 1300.33 3368.29 1300.84 3369.57 1301.52 3370.86 1302.19 3371.93 1303.06 3372.8 1304.13 3373.66 1305.2 3374.31 1306.4 3374.74 1307.74 3375.17 1309.07 3375.39 1310.5 3375.39 1312.01 3375.39 1316.17 3374.12 1319.71 3371.58 1322.63 3369.04 1325.55 3365.3 1327.76 3360.35 1329.28L3360.35 1329.72C3361.65 1330.69 3362.7 1331.86 3363.49 1333.21 3364.29 1334.56 3364.93 1336.44 3365.42 1338.84L3366.35 1343.54C3366.65 1345.03 3366.99 1346.37 3367.36 1347.55 3367.74 1348.74 3368.2 1349.69 3368.72 1350.39 3369.25 1351.09 3369.84 1351.62 3370.51 1351.97 3371.17 1352.32 3372.13 1352.61 3373.4 1352.82L3373 1354.81 3361.77 1354.81C3360.91 1352.4 3360.14 1349.54 3359.46 1346.22L3357.68 1337.63C3357.38 1336.14 3357.02 1334.89 3356.6 1333.88 3356.19 1332.86 3355.69 1332.08 3355.11 1331.53 3354.52 1330.97 3353.85 1330.61 3353.08 1330.43 3352.31 1330.26 3351.37 1330.17 3350.26 1330.17L3345.64 1330.17 3342.81 1343.02C3342.56 1344.07 3342.39 1344.91 3342.3 1345.53 3342.2 1346.15 3342.12 1346.8 3342.06 1347.49 3341.99 1348.18 3341.95 1348.8 3341.95 1349.34 3341.95 1350.18 3342.09 1350.83 3342.36 1351.3 3342.63 1351.78 3343.03 1352.12 3343.58 1352.34 3344.12 1352.55 3345.05 1352.71 3346.37 1352.82L3345.93 1354.81 3329.27 1354.81 3329.71 1352.82C3330.74 1352.66 3331.51 1352.4 3332.02 1352.03 3332.54 1351.67 3332.97 1351.16 3333.32 1350.51 3333.67 1349.86 3334 1349.07 3334.29 1348.14 3334.59 1347.21 3335.04 1345.41 3335.63 1342.73L3342.52 1311.53C3343.12 1308.82 3343.41 1306.69 3343.41 1305.12 3343.41 1303.8 3343.1 1302.88 3342.48 1302.37 3341.86 1301.85 3340.85 1301.56 3339.44 1301.47ZM3231.84 1299.49 3274.15 1299.49 3270.98 1313.75 3267.09 1313.75C3267.09 1311.13 3267.03 1309.17 3266.89 1307.86 3266.76 1306.55 3266.5 1305.55 3266.12 1304.86 3265.74 1304.17 3265.28 1303.7 3264.72 1303.44 3264.17 1303.18 3263.19 1303.06 3261.79 1303.06L3255.79 1303.06 3246.99 1343.02C3246.75 1344.07 3246.58 1344.91 3246.49 1345.53 3246.39 1346.15 3246.31 1346.8 3246.24 1347.49 3246.18 1348.18 3246.14 1348.8 3246.14 1349.34 3246.14 1350.18 3246.28 1350.83 3246.55 1351.3 3246.82 1351.78 3247.22 1352.12 3247.76 1352.34 3248.3 1352.55 3249.24 1352.71 3250.56 1352.82L3250.11 1354.81 3233.05 1354.81 3233.5 1352.82C3234.58 1352.66 3235.37 1352.44 3235.89 1352.17 3236.4 1351.9 3236.85 1351.49 3237.25 1350.92 3237.64 1350.35 3238.03 1349.46 3238.42 1348.24 3238.81 1347.03 3239.28 1345.19 3239.82 1342.73L3248.49 1303.06 3243.35 1303.06C3241.67 1303.06 3240.33 1303.3 3239.33 1303.78 3238.33 1304.27 3237.33 1305.18 3236.33 1306.5 3235.33 1307.82 3234.12 1310.04 3232.69 1313.15L3228.8 1313.15ZM3309.12 1298.84 3315.24 1298.84 3318.16 1344.03C3318.3 1346.16 3318.54 1347.83 3318.89 1349.03 3319.24 1350.24 3319.72 1351.13 3320.33 1351.71 3320.94 1352.29 3321.82 1352.66 3322.98 1352.82L3322.54 1354.81 3305.68 1354.81 3306.12 1352.82C3307.72 1352.69 3308.91 1352.07 3309.69 1350.96 3310.47 1349.85 3310.87 1347.91 3310.87 1345.12 3310.87 1344.07 3310.83 1342.92 3310.74 1341.68L3310.46 1336.45 3292.63 1336.45 3290.4 1340.42C3289.35 1342.29 3288.58 1343.89 3288.09 1345.22 3287.6 1346.56 3287.36 1347.74 3287.36 1348.77 3287.36 1351.04 3288.72 1352.39 3291.45 1352.82L3291.01 1354.81 3274.43 1354.81 3274.88 1352.82C3275.72 1352.71 3276.51 1352.38 3277.25 1351.83 3277.99 1351.28 3278.78 1350.44 3279.62 1349.32 3280.46 1348.2 3281.63 1346.34 3283.15 1343.74Z" fill-rule="evenodd"/><text fill="#000000" fill-opacity="0" font-family="Arial,Arial_MSFontService,sans-serif" font-size="73.395" x="3180.93" y="1363.06">ğ‘ğ‘‡ğ´ğ‘…</text><text font-family="Arial,Arial_MSFontService,sans-serif" font-weight="700" font-size="64" transform="matrix(1 0 0 1 2304.66 1689)">A</text><text font-family="Arial,Arial_MSFontService,sans-serif" font-weight="700" font-size="64" transform="matrix(1 0 0 1 2304.66 1766)">C</text><text font-family="Arial,Arial_MSFontService,sans-serif" font-weight="700" font-size="64" transform="matrix(1 0 0 1 2304.66 1843)">D</text><text font-family="Arial,Arial_MSFontService,sans-serif" font-weight="700" font-size="64" transform="matrix(1 0 0 1 2304.66 1920)">F</text><text font-family="Arial,Arial_MSFontService,sans-serif" font-weight="700" font-size="64" transform="matrix(1 0 0 1 2304.66 1997)">B</text><text font-family="Arial,Arial_MSFontService,sans-serif" font-weight="700" font-size="64" transform="matrix(1 0 0 1 2304.66 2074)">E</text><rect x="2370.5" y="1636.5" width="509" height="52.9999" stroke="#172C51" stroke-width="3.4375" stroke-miterlimit="8" fill="#FFFFFF"/><rect x="2370" y="1636" width="163" height="52.9999" fill="#D9D9D9"/><rect x="2370.5" y="1715.5" width="509" height="52.9999" stroke="#172C51" stroke-width="3.4375" stroke-miterlimit="8" fill="#FFFFFF"/><rect x="2370" y="1717" width="449" height="52.9999" fill="#D9D9D9"/><rect x="2370.5" y="1794.5" width="509" height="53.0002" stroke="#172C51" stroke-width="4.58333" stroke-miterlimit="8" fill="#FFFFFF"/><rect x="2370" y="1793" width="265" height="52.9999" fill="#D9D9D9"/><rect x="2370.5" y="1872.5" width="509" height="52.9999" stroke="#172C51" stroke-width="4.58333" stroke-miterlimit="8" fill="#FFFFFF"/><rect x="2370" y="1872" width="472" height="52.9999" fill="#D9D9D9"/><rect x="2370.5" y="1951.5" width="509" height="52.9999" stroke="#172C51" stroke-width="4.58333" stroke-miterlimit="8" fill="#FFFFFF"/><rect x="2370" y="1951" width="124" height="52.9999" fill="#D9D9D9"/><rect x="2370.5" y="2030.5" width="509" height="53" stroke="#172C51" stroke-width="4.58333" stroke-miterlimit="8" fill="#FFFFFF"/><rect x="2370" y="2029" width="39.9998" height="52.9999" fill="#D9D9D9"/><text fill="#767171" font-family="Arial,Arial_MSFontService,sans-serif" font-style="italic" font-weight="400" font-size="110" transform="matrix(1 0 0 1 2513.44 2193)">NCO</text><text font-family="Arial,Arial_MSFontService,sans-serif" font-weight="700" font-size="64" transform="matrix(1 0 0 1 1535.58 1692)">A</text><text font-family="Arial,Arial_MSFontService,sans-serif" font-weight="700" font-size="64" transform="matrix(1 0 0 1 1535.58 1769)">C</text><text font-family="Arial,Arial_MSFontService,sans-serif" font-weight="700" font-size="64" transform="matrix(1 0 0 1 1535.58 1846)">D</text><text font-family="Arial,Arial_MSFontService,sans-serif" font-weight="700" font-size="64" transform="matrix(1 0 0 1 1535.58 1923)">F</text><text font-family="Arial,Arial_MSFontService,sans-serif" font-weight="700" font-size="64" transform="matrix(1 0 0 1 1535.58 2000)">B</text><text font-family="Arial,Arial_MSFontService,sans-serif" font-weight="700" font-size="64" transform="matrix(1 0 0 1 1535.58 2077)">E</text><rect x="1601.5" y="1639.5" width="509" height="53.0002" stroke="#172C51" stroke-width="4.58333" stroke-miterlimit="8" fill="#FFFFFF"/><rect x="1601" y="1639" width="163" height="52.9999" fill="#FFE699"/><rect x="1601.5" y="1718.5" width="509" height="52.9999" stroke="#172C51" stroke-width="4.58333" stroke-miterlimit="8" fill="#FFFFFF"/><rect x="1601" y="1717" width="257" height="52.9999" fill="#FFE699"/><rect x="1601.5" y="1797.5" width="509" height="52.9999" stroke="#172C51" stroke-width="4.58333" stroke-miterlimit="8" fill="#FFFFFF"/><rect x="1601" y="1796" width="450" height="52.9999" fill="#FFE699"/><rect x="1601.5" y="1875.5" width="509" height="54" stroke="#172C51" stroke-width="4.58333" stroke-miterlimit="8" fill="#FFFFFF"/><rect x="1601" y="1875" width="296" height="52.9999" fill="#FFE699"/><rect x="1601.5" y="1954.5" width="509" height="52.9999" stroke="#172C51" stroke-width="4.58333" stroke-miterlimit="8" fill="#FFFFFF"/><rect x="1601" y="1954" width="78" height="53.0002" fill="#FFE699"/><rect x="1601.5" y="2033.5" width="509" height="52.9999" stroke="#172C51" stroke-width="4.58333" stroke-miterlimit="8" fill="#FFFFFF"/><rect x="1601" y="2032" width="269" height="52.9999" fill="#FFE699"/><text fill="#D3A13B" font-family="Arial,Arial_MSFontService,sans-serif" font-style="italic" font-weight="700" font-size="110" transform="matrix(1 0 0 1 1631.55 2193)">DeCoST</text><path d="M2922 1840.68C2922 1837.54 2924.54 1835 2927.68 1835L3426.32 1835C3429.45 1835 3432 1837.54 3432 1840.68L3432 2170.32C3432 2173.45 3429.45 2176 3426.32 2176L2927.68 2176C2924.54 2176 2922 2173.45 2922 2170.32Z" fill="#F2F2F2" fill-rule="evenodd"/><text font-family="Arial Nova Light,Arial Nova Light_MSFontService,sans-serif" font-weight="300" font-size="55" transform="matrix(1 0 0 1 3012.38 1957)">Service time</text><rect x="2958.5" y="1881.5" width="25.9998" height="102" stroke="#172C51" stroke-width="4.58333" stroke-miterlimit="8" fill="#FFFFFF"/><rect x="2958.5" y="1919.5" width="25.9998" height="63.9999" stroke="#172C51" stroke-width="4.58333" stroke-miterlimit="8" fill="#D9D9D9"/><rect x="2957.5" y="2031.5" width="26.9998" height="102" stroke="#172C51" stroke-width="4.58333" stroke-miterlimit="8" fill="#FFFFFF"/><rect x="2957.5" y="2084.5" width="26.9998" height="49.0002" stroke="#172C51" stroke-width="4.58333" stroke-miterlimit="8" fill="#FFD966"/><text font-family="Arial Nova Light,Arial Nova Light_MSFontService,sans-serif" font-weight="300" font-size="55" transform="matrix(1 0 0 1 3012.38 2072)">Optimal service </text><text font-family="Arial Nova Light,Arial Nova Light_MSFontService,sans-serif" font-weight="300" font-size="55" transform="matrix(1 0 0 1 3012.38 2138)">time</text><path d="M2748 1320.5C2748 1295.92 2767.92 1276 2792.5 1276 2817.08 1276 2837 1295.92 2837 1320.5 2837 1345.08 2817.08 1365 2792.5 1365 2767.92 1365 2748 1345.08 2748 1320.5Z" fill="#2F5597" fill-rule="evenodd"/><text fill="#FFFFFF" font-family="Arial,Arial_MSFontService,sans-serif" font-weight="700" font-size="83" transform="matrix(1 0 0 1 2760.13 1351)">G</text><path d="M2.84116-3.59649 75.2489 53.6043 69.5666 60.7972-2.84116 3.59649ZM77.3347 43.5701 90.3902 71.4065 60.2878 65.149Z" fill="#FFC000" transform="matrix(-1 0 0 1 2914.89 1218.5)"/><path d="M2038 533.5C2038 508.923 2057.92 489 2082.5 489 2107.08 489 2127 508.923 2127 533.5 2127 558.077 2107.08 578 2082.5 578 2057.92 578 2038 558.077 2038 533.5Z" fill="#2F5597" fill-rule="evenodd"/><text fill="#FFFFFF" font-family="Arial,Arial_MSFontService,sans-serif" font-weight="700" font-size="83" transform="matrix(1 0 0 1 2052.63 564)">D</text><path d="M1944 688.5C1944 663.923 1963.92 644 1988.5 644 2013.08 644 2033 663.923 2033 688.5 2033 713.077 2013.08 733 1988.5 733 1963.92 733 1944 713.077 1944 688.5Z" fill="#2F5597" fill-rule="evenodd"/><text fill="#FFFFFF" font-family="Arial,Arial_MSFontService,sans-serif" font-weight="700" font-size="83" transform="matrix(1 0 0 1 1958.7 719)">B</text><path d="M1950 870.5C1950 845.923 1969.92 826 1994.5 826 2019.08 826 2039 845.923 2039 870.5 2039 895.077 2019.08 915 1994.5 915 1969.92 915 1950 895.077 1950 870.5Z" fill="#2F5597" fill-rule="evenodd"/><text fill="#FFFFFF" font-family="Arial,Arial_MSFontService,sans-serif" font-weight="700" font-size="83" transform="matrix(1 0 0 1 1969.45 901)">F</text><path d="M1466 870.5C1466 845.923 1485.92 826 1510.5 826 1535.08 826 1555 845.923 1555 870.5 1555 895.077 1535.08 915 1510.5 915 1485.92 915 1466 895.077 1466 870.5Z" fill="#2F5597" fill-rule="evenodd"/><text fill="#FFFFFF" font-family="Arial,Arial_MSFontService,sans-serif" font-weight="700" font-size="83" transform="matrix(1 0 0 1 1482.86 901)">E</text><path d="M1566 688.5C1566 663.923 1585.7 644 1610 644 1634.3 644 1654 663.923 1654 688.5 1654 713.077 1634.3 733 1610 733 1585.7 733 1566 713.077 1566 688.5Z" fill="#2F5597" fill-rule="evenodd"/><text fill="#FFFFFF" font-family="Arial,Arial_MSFontService,sans-serif" font-weight="700" font-size="83" transform="matrix(1 0 0 1 1584.81 719)">F</text><path d="M1694 533.5C1694 508.923 1713.7 489 1738 489 1762.3 489 1782 508.923 1782 533.5 1782 558.077 1762.3 578 1738 578 1713.7 578 1694 558.077 1694 533.5Z" fill="#2F5597" fill-rule="evenodd"/><text fill="#FFFFFF" font-family="Arial,Arial_MSFontService,sans-serif" font-weight="700" font-size="83" transform="matrix(1 0 0 1 1708.21 564)">D</text><path d="M1819 1019.5C1819 994.923 1838.92 975 1863.5 975 1888.08 975 1908 994.923 1908 1019.5 1908 1044.08 1888.08 1064 1863.5 1064 1838.92 1064 1819 1044.08 1819 1019.5Z" fill="#2F5597" fill-rule="evenodd"/><text fill="#FFFFFF" font-family="Arial,Arial_MSFontService,sans-serif" font-weight="700" font-size="83" transform="matrix(1 0 0 1 1835.78 1050)">E</text><path d="M2.56285-3.79983 177.978 114.511 172.852 122.111-2.56285 3.79983ZM179.303 104.349 194.414 131.125 163.926 127.148Z" fill="#FFC000" transform="matrix(-1 0 0 1 2308.91 371.5)"/><path d="M4.34287-1.46506 28.2929 69.5299 19.6071 72.46-4.34287 1.46506ZM35.5136 62.2569 31.2753 92.7093 9.45632 71.0472Z" fill="#FFC000" transform="matrix(-1 0 0 1 2051.78 565.5)"/><path d="M1993.07 733.197 1997.72 803.27 1988.57 803.877 1983.93 733.803ZM2006.56 798.091 1994.66 826.44 1979.12 799.91Z" fill="#FFC000"/><path d="M3.59375-2.84462 58.0889 66.0018 50.9014 71.691-3.59375 2.84462ZM62.4318 56.7188 68.7182 86.8152 40.8692 73.7865Z" fill="#FFC000" transform="matrix(-1 0 0 1 1964.22 902.5)"/><rect x="2140.5" y="442.5" width="37.0002" height="143" stroke="#172C51" stroke-width="4.58333" stroke-miterlimit="8" fill="#FFFFFF"/><rect x="2140.5" y="472.5" width="37.0002" height="113" stroke="#172C51" stroke-width="4.58333" stroke-miterlimit="8" fill="#D9D9D9"/><rect x="2041.5" y="612.5" width="37.0002" height="142" stroke="#172C51" stroke-width="4.58333" stroke-miterlimit="8" fill="#FFFFFF"/><rect x="2041.5" y="658.5" width="37.0002" height="95.9999" stroke="#172C51" stroke-width="4.58333" stroke-miterlimit="8" fill="#D9D9D9"/><rect x="2045.5" y="781.5" width="36.9999" height="143" stroke="#172C51" stroke-width="4.58333" stroke-miterlimit="8" fill="#FFFFFF"/><rect x="2045.5" y="801.5" width="36.9999" height="123" stroke="#172C51" stroke-width="4.58333" stroke-miterlimit="8" fill="#D9D9D9"/><rect x="1921.5" y="928.5" width="36.9998" height="142" stroke="#172C51" stroke-width="4.58333" stroke-miterlimit="8" fill="#FFFFFF"/><rect x="1921.5" y="954.5" width="36.9998" height="116" stroke="#172C51" stroke-width="4.58333" stroke-miterlimit="8" fill="#D9D9D9"/><path d="M1233 1449.83C1233 1432.8 1246.8 1419 1263.83 1419L2103.17 1419C2120.2 1419 2134 1432.8 2134 1449.83L2134 1573.17C2134 1590.2 2120.2 1604 2103.17 1604L1263.83 1604C1246.8 1604 1233 1590.2 1233 1573.17Z" fill="#DEEBF7" fill-rule="evenodd" fill-opacity="0.427451"/><text fill="#2F5597" font-family="Arial,Arial_MSFontService,sans-serif" font-style="italic" font-weight="700" font-size="64" transform="matrix(1 0 0 1 1256.25 1487)">2. How to determine </text><text fill="#FF5A79" font-family="Arial,Arial_MSFontService,sans-serif" font-style="italic" font-weight="700" font-size="83" transform="matrix(1 0 0 1 1256.25 1582)">optimal</text><text fill="#2F5597" font-family="Arial,Arial_MSFontService,sans-serif" font-style="italic" font-weight="700" font-size="64" transform="matrix(1 0 0 1 1567.35 1582)">service times?</text><path d="M1239 275.001C1239 257.88 1252.88 244 1270 244L2106 244C2123.12 244 2137 257.88 2137 275.001L2137 398.999C2137 416.12 2123.12 430 2106 430L1270 430C1252.88 430 1239 416.12 1239 398.999Z" fill="#DEEBF7" fill-rule="evenodd" fill-opacity="0.427451"/><text fill="#2F5597" font-family="Arial,Arial_MSFontService,sans-serif" font-style="italic" font-weight="700" font-size="64" transform="matrix(1 0 0 1 1249.2 317)">1. How to find a best service </text><text fill="#2F5597" font-family="Arial,Arial_MSFontService,sans-serif" font-style="italic" font-weight="700" font-size="64" transform="matrix(1 0 0 1 1249.2 403)">time / travel time (</text><text fill="#FF5A79" font-family="Arial,Arial_MSFontService,sans-serif" font-style="italic" font-weight="700" font-size="73" transform="matrix(1 0 0 1 1793.47 403)">pTAR</text><text fill="#2F5597" font-family="Arial,Arial_MSFontService,sans-serif" font-style="italic" font-weight="700" font-size="64" transform="matrix(1 0 0 1 1982.81 403)">)?</text></g></svg>